<svg width="71" height="72" viewBox="0 0 71 72" fill="none" xmlns="http://www.w3.org/2000/svg">
<g clip-path="url(#clip0_192_671)">
<mask id="path-1-outside-1_192_671" maskUnits="userSpaceOnUse" x="0" y="0" width="71" height="72" fill="black">
<rect fill="white" width="71" height="72"/>
<path d="M4 4H67V64H4V4Z"/>
</mask>
<path d="M47.0202 9.7241V15.7001H40.5006L36.8028 22.1568H34.2086L30.5107 15.7001H23.9911V9.7241H47.0202Z" fill="#F2F7F8"/>
<path d="M23.9911 50.1133V51.2353H48.4425C49.2276 51.2353 49.8647 51.8764 49.8647 52.6663V56.6503C49.8647 57.4402 49.2276 58.0813 48.4425 58.0813H22.5689C21.7838 58.0813 21.1466 57.4402 21.1466 56.6503C21.1466 55.8603 21.7838 55.2192 22.5689 55.2192H47.0202V54.0973H22.5689C21.7838 54.0973 21.1466 53.4562 21.1466 52.6663V48.6823C21.1466 47.8924 21.7838 47.2513 22.5689 47.2513H47.0202V46.1408H22.5689C21.7838 46.1408 21.1466 45.4997 21.1466 44.7098V40.7258C21.1466 39.9359 21.7838 39.2948 22.5689 39.2948H34.0721V25.763C34.0721 24.9731 34.7092 24.332 35.4943 24.332C36.2908 24.332 36.9166 24.9731 36.9166 25.763V40.7258C36.9166 41.5157 36.2908 42.1568 35.4943 42.1568H23.9911V43.2788H48.4425C49.2276 43.2788 49.8647 43.9199 49.8647 44.7098V48.6823C49.8647 49.4837 49.2276 50.1133 48.4425 50.1133H23.9911Z" fill="#F2F7F8"/>
<path d="M4 4V64H67V4H4ZM47.0202 9.7241V15.7001H40.5006L36.8028 22.1568H34.2086L30.5107 15.7001H23.9911V9.7241H47.0202ZM49.8647 48.6823C49.8647 49.4837 49.2276 50.1133 48.4425 50.1133H23.9911V51.2353H48.4425C49.2276 51.2353 49.8647 51.8764 49.8647 52.6663V56.6503C49.8647 57.4402 49.2276 58.0813 48.4425 58.0813H22.5689C21.7838 58.0813 21.1466 57.4402 21.1466 56.6503C21.1466 55.8603 21.7838 55.2192 22.5689 55.2192H47.0202V54.0973H22.5689C21.7838 54.0973 21.1466 53.4562 21.1466 52.6663V48.6823C21.1466 47.8924 21.7838 47.2513 22.5689 47.2513H47.0202V46.1408H22.5689C21.7838 46.1408 21.1466 45.4997 21.1466 44.7098V40.7258C21.1466 39.9359 21.7838 39.2948 22.5689 39.2948H34.0721V25.763C34.0721 24.9731 34.7092 24.332 35.4943 24.332C36.2908 24.332 36.9166 24.9731 36.9166 25.763V40.7258C36.9166 41.5157 36.2908 42.1568 35.4943 42.1568H23.9911V43.2788H48.4425C49.2276 43.2788 49.8647 43.9199 49.8647 44.7098V48.6823Z" fill="#00454E"/>
</g>
<path d="M4 4V0C1.79086 0 0 1.79086 0 4L4 4ZM67 4H71C71 1.79086 69.2091 0 67 0V4ZM67 64V72C69.2091 72 71 70.2091 71 68V64H67ZM4 64H0V68C0 70.2091 1.79086 72 4 72V64ZM4 8H67V0H4V8ZM63 4V64H71V4H63ZM67 56H4V72H67V56ZM8 64V4H0V64H8Z" fill="#080B0C" mask="url(#path-1-outside-1_192_671)"/>
<defs>
<clipPath id="clip0_192_671">
<path d="M4 4H67V64H4V4Z" fill="white"/>
</clipPath>
</defs>
</svg>
