<svg width="19" height="19" viewBox="0 0 19 19" fill="none" xmlns="http://www.w3.org/2000/svg">
<path d="M0 2.88328C0 2.26058 0.250223 1.66339 0.695621 1.22308C1.14102 0.782765 1.74511 0.5354 2.375 0.5354L16.625 0.5354C17.2549 0.5354 17.859 0.782765 18.3044 1.22308C18.7498 1.66339 19 2.26058 19 2.88328V12.2748C19 12.8975 18.7498 13.4947 18.3044 13.935C17.859 14.3753 17.2549 14.6227 16.625 14.6227H13.6562C13.4719 14.6227 13.2901 14.6651 13.1252 14.7466C12.9603 14.8281 12.8169 14.9464 12.7063 15.0922L10.45 18.0658C10.3394 18.2116 10.196 18.33 10.0311 18.4115C9.86617 18.493 9.68435 18.5354 9.5 18.5354C9.31565 18.5354 9.13382 18.493 8.96893 18.4115C8.80404 18.33 8.66061 18.2116 8.55 18.0658L6.29375 15.0922C6.18314 14.9464 6.03971 14.8281 5.87482 14.7466C5.70993 14.6651 5.5281 14.6227 5.34375 14.6227H2.375C1.74511 14.6227 1.14102 14.3753 0.695621 13.935C0.250223 13.4947 0 12.8975 0 12.2748V2.88328ZM4.15625 4.05722C3.99878 4.05722 3.84776 4.11906 3.73641 4.22914C3.62506 4.33921 3.5625 4.48851 3.5625 4.64419C3.5625 4.79986 3.62506 4.94916 3.73641 5.05924C3.84776 5.16931 3.99878 5.23115 4.15625 5.23115H14.8438C15.0012 5.23115 15.1522 5.16931 15.2636 5.05924C15.3749 4.94916 15.4375 4.79986 15.4375 4.64419C15.4375 4.48851 15.3749 4.33921 15.2636 4.22914C15.1522 4.11906 15.0012 4.05722 14.8438 4.05722H4.15625ZM4.15625 6.99206C3.99878 6.99206 3.84776 7.0539 3.73641 7.16398C3.62506 7.27406 3.5625 7.42336 3.5625 7.57903C3.5625 7.73471 3.62506 7.884 3.73641 7.99408C3.84776 8.10416 3.99878 8.166 4.15625 8.166H14.8438C15.0012 8.166 15.1522 8.10416 15.2636 7.99408C15.3749 7.884 15.4375 7.73471 15.4375 7.57903C15.4375 7.42336 15.3749 7.27406 15.2636 7.16398C15.1522 7.0539 15.0012 6.99206 14.8438 6.99206H4.15625ZM4.15625 9.92691C3.99878 9.92691 3.84776 9.98875 3.73641 10.0988C3.62506 10.2089 3.5625 10.3582 3.5625 10.5139C3.5625 10.6696 3.62506 10.8189 3.73641 10.9289C3.84776 11.039 3.99878 11.1008 4.15625 11.1008H10.0938C10.2512 11.1008 10.4022 11.039 10.5136 10.9289C10.6249 10.8189 10.6875 10.6696 10.6875 10.5139C10.6875 10.3582 10.6249 10.2089 10.5136 10.0988C10.4022 9.98875 10.2512 9.92691 10.0938 9.92691H4.15625Z" fill="#F2F7F8"/>
</svg>
