<svg width="64" height="67" viewBox="0 0 64 67" fill="none" xmlns="http://www.w3.org/2000/svg">
<path d="M62.2222 3.52631H1.77778C0.794667 3.52631 0 4.31621 0 5.28947V61.7105C0 64.6268 2.39289 67 5.33333 67H58.6667C61.6071 67 64 64.6268 64 61.7105V5.28947C64 4.31621 63.2053 3.52631 62.2222 3.52631Z" fill="#080B0C"/>
<path d="M58.6662 61.7105H5.3329C3.36845 61.7105 1.77734 60.1325 1.77734 58.1842V1.76316H62.2218V58.1842C62.2218 60.1325 60.6307 61.7105 58.6662 61.7105Z" fill="#080B0C"/>
<path d="M58.6667 63.4737H5.33333C2.39289 63.4737 0 61.1005 0 58.1842V1.76316C0 0.788132 0.794667 0 1.77778 0H62.2222C63.2053 0 64 0.788132 64 1.76316V58.1842C64 61.1005 61.6071 63.4737 58.6667 63.4737ZM3.55556 3.52632V58.1842C3.55556 59.1575 4.352 59.9474 5.33333 59.9474H58.6667C59.648 59.9474 60.4444 59.1575 60.4444 58.1842V3.52632H3.55556Z" fill="#080B0C"/>
<path d="M40.1304 40.3845H48.8788L50.2388 31.5811H40.1304V26.7589C40.1304 23.095 41.3304 19.8596 44.7846 19.8596H50.3348V12.167C49.3588 12.04 47.2966 11.7544 43.4104 11.7544C35.2699 11.7544 30.5037 16.0054 30.5037 25.7133V31.5829H22.1553V40.3863H30.5037V61.0646C32.1659 61.3009 33.8282 61.4754 35.5562 61.4754C37.1082 61.4754 38.6264 61.3326 40.1304 61.1263V40.3845Z" fill="#F2F7F8"/>
</svg>
