<svg width="63" height="67" viewBox="0 0 63 67" fill="none" xmlns="http://www.w3.org/2000/svg">
<path d="M18.5294 67H44.4706C54.7044 67 63 58.6678 63 48.3889V44.6667H0V48.3889C0 58.6678 8.29562 67 18.5294 67Z" fill="#080B0C"/>
<path d="M46.3231 61.4167H16.6761C8.48977 61.4167 1.85254 54.7502 1.85254 46.5278V16.75C1.85254 8.52761 8.48977 1.86111 16.6761 1.86111H46.3231C54.5094 1.86111 61.1467 8.52761 61.1467 16.75V46.5278C61.1467 54.7502 54.5094 61.4167 46.3231 61.4167Z" fill="#080B0C"/>
<path d="M46.3235 63.2778H16.6765C7.48218 63.2778 0 55.7626 0 46.5278V16.75C0 7.51517 7.48218 0 16.6765 0H46.3235C55.5178 0 63 7.51517 63 16.75V46.5278C63 55.7626 55.5178 63.2778 46.3235 63.2778ZM16.6765 3.72222C9.52412 3.72222 3.70588 9.56611 3.70588 16.75V46.5278C3.70588 53.7117 9.52412 59.5556 16.6765 59.5556H46.3235C53.4759 59.5556 59.2941 53.7117 59.2941 46.5278V16.75C59.2941 9.56611 53.4759 3.72222 46.3235 3.72222H16.6765Z" fill="#080B0C"/>
<path d="M31.4997 14.8889C22.3054 14.8889 14.8232 22.4041 14.8232 31.6389C14.8232 40.8737 22.3054 48.3889 31.4997 48.3889C40.694 48.3889 48.1762 40.8737 48.1762 31.6389C48.1762 22.4041 40.694 14.8889 31.4997 14.8889ZM31.4997 44.6667C24.3474 44.6667 18.5291 38.8228 18.5291 31.6389C18.5291 24.455 24.3474 18.6111 31.4997 18.6111C38.6521 18.6111 44.4703 24.455 44.4703 31.6389C44.4703 38.8228 38.6521 44.6667 31.4997 44.6667Z" fill="#F2F7F8"/>
<path d="M49.1027 16.75C50.6377 16.75 51.8821 15.5001 51.8821 13.9583C51.8821 12.4165 50.6377 11.1667 49.1027 11.1667C47.5676 11.1667 46.3232 12.4165 46.3232 13.9583C46.3232 15.5001 47.5676 16.75 49.1027 16.75Z" fill="#F2F7F8"/>
</svg>
