<svg width="71" height="72" viewBox="0 0 71 72" fill="none" xmlns="http://www.w3.org/2000/svg">
<g clip-path="url(#clip0_363_713)">
<mask id="path-1-outside-1_363_713" maskUnits="userSpaceOnUse" x="0" y="0" width="71" height="72" fill="black">
<rect fill="white" width="71" height="72"/>
<path d="M4 4H67V64H4V4Z"/>
</mask>
<path d="M67 4H4V64H67V4Z" fill="#00454E"/>
<path d="M55.8824 26.0915C55.8824 31.6258 52.3793 36.325 47.5136 37.9823L32.0588 22.1464C33.6627 17.1596 38.2624 13.5575 43.6634 13.5575C50.4148 13.5575 55.8824 19.1726 55.8824 26.0915Z" fill="#F2F7F8"/>
<path d="M47.4118 40.0135C46.0627 47.6172 39.53 53.3805 31.6628 53.3805C22.8205 53.3805 15.6471 46.0767 15.6471 37.0566C15.6471 29.0302 21.3104 22.3674 28.7642 20.9911C28.6572 21.7401 28.6043 22.4489 28.6043 23.1577C28.6043 28.3903 30.9286 33.0773 34.575 36.1985C35.7372 37.1933 37.0469 38.0376 38.4624 38.6924C40.5458 39.6459 42.8577 40.1778 45.2879 40.1778C45.9827 40.1778 46.6775 40.1227 47.4118 40.0135Z" fill="#F2F7F8"/>
<path d="M38.7751 43.823H24.2818C22.9082 43.823 22.0697 42.3056 22.7981 41.1718L27.3185 34.0236C28.0053 32.9302 29.5989 32.9302 30.2718 34.0236L33.129 38.5333L34.3925 36.5239C34.4748 36.3868 34.5709 36.2785 34.681 36.169C35.8762 37.1668 37.2231 38.0137 38.6789 38.6704L40.2587 41.1718C40.9872 42.3056 40.1626 43.823 38.7751 43.823Z" fill="#00454E"/>
<path d="M47.4118 22.0531C47.4118 22.9339 46.6919 23.646 45.8291 23.646C44.9539 23.646 44.2353 22.9339 44.2353 22.0531C44.2353 21.1723 44.9539 20.4602 45.8291 20.4602C46.6919 20.4602 47.4118 21.1723 47.4118 22.0531Z" fill="#00454E"/>
<path d="M49.2384 31.6095H41.3176L37.8824 28.2622L40.4855 24.2642C41.0038 23.44 42.2163 23.44 42.7346 24.2642L44.9298 27.6518L45.8836 26.1512C46.4158 25.3404 47.6144 25.3404 48.1466 26.1512L50.3819 29.6183C50.9405 30.4818 50.3003 31.6106 49.2372 31.6106L49.2384 31.6095Z" fill="#00454E"/>
<path d="M46.3518 38.4819C37.3991 39.0486 29.9412 31.8676 29.9412 22.9977C29.9412 22.687 29.9548 22.3763 29.9684 22.0531L46.3529 38.4819H46.3518Z" fill="#F2F7F8"/>
</g>
<path d="M4 4V0C1.79086 0 0 1.79086 0 4L4 4ZM67 4H71C71 1.79086 69.2091 0 67 0V4ZM67 64V72C69.2091 72 71 70.2091 71 68V64H67ZM4 64H0V68C0 70.2091 1.79086 72 4 72V64ZM4 8H67V0H4V8ZM63 4V64H71V4H63ZM67 56H4V72H67V56ZM8 64V4H0V64H8Z" fill="#080B0C" mask="url(#path-1-outside-1_363_713)"/>
<defs>
<clipPath id="clip0_363_713">
<path d="M4 4H67V64H4V4Z" fill="white"/>
</clipPath>
</defs>
</svg>
