<svg width="71" height="72" viewBox="0 0 71 72" fill="none" xmlns="http://www.w3.org/2000/svg">
<g clip-path="url(#clip0_192_653)">
<mask id="path-1-outside-1_192_653" maskUnits="userSpaceOnUse" x="0" y="0" width="71" height="72" fill="black">
<rect fill="white" width="71" height="72"/>
<path d="M4 4H67V64H4V4Z"/>
</mask>
<path d="M25.0948 51.9336C24.8217 52.2999 24.4008 52.4946 23.9684 52.4946C23.6612 52.4946 23.3654 52.403 23.1037 52.2084L18.78 48.8769C18.1542 48.3961 18.0405 47.5031 18.5183 46.8735C18.9962 46.2438 19.8837 46.1294 20.5095 46.6102L24.8331 49.9302C25.4589 50.411 25.5727 51.3039 25.0948 51.9336Z" fill="#F2F7F8"/>
<path d="M29.3502 48.4419C29.1113 48.5907 28.8496 48.6709 28.5879 48.6709C28.1214 48.6709 27.6549 48.4305 27.3932 48.0069L24.4804 43.3703C24.0594 42.7064 24.2528 41.8248 24.9241 41.4013C25.5841 40.9777 26.4602 41.1723 26.8812 41.8477L29.7939 46.4728C30.2149 47.1368 30.0101 48.0183 29.3502 48.4419Z" fill="#F2F7F8"/>
<path d="M33.9241 58.2759H9.689V56.6503H32.9001L33.9241 58.2759Z" fill="#F2F7F8"/>
<path d="M36.9279 25.763V55.4825L35.5057 57.7607L34.0834 55.4825V25.763C34.0834 24.9616 34.7206 24.332 35.5057 24.332C36.2908 24.332 36.9279 24.9616 36.9279 25.763Z" fill="#F2F7F8"/>
<path d="M46.531 43.3703L43.6182 48.0069C43.3565 48.4305 42.89 48.6709 42.4235 48.6709C42.1618 48.6709 41.9001 48.5907 41.6612 48.4419C41.0013 48.0183 40.7965 47.1368 41.2174 46.4728L44.1302 41.8477C44.5512 41.1723 45.4273 40.9777 46.0872 41.4013C46.7585 41.8248 46.952 42.7064 46.531 43.3703Z" fill="#F2F7F8"/>
<path d="M47.0202 9.7241V15.7001H40.5006L36.8028 22.1568H34.2086L30.5107 15.7001H23.9911V9.7241H47.0202Z" fill="#F2F7F8"/>
<path d="M52.2314 48.8769L47.9077 52.2084C47.646 52.403 47.3502 52.4946 47.043 52.4946C46.6106 52.4946 46.1896 52.2999 45.9166 51.9336C45.4387 51.3039 45.5525 50.411 46.1783 49.9302L50.5019 46.6102C51.1277 46.1294 52.0152 46.2438 52.493 46.8735C52.9709 47.5031 52.8571 48.3961 52.2314 48.8769Z" fill="#F2F7F8"/>
<path d="M61.311 56.6503V58.2759H37.0872L38.1113 56.6503H61.311Z" fill="#F2F7F8"/>
<path d="M4 4V64H67V4H4ZM47.0202 9.7241V15.7001H40.5006L36.8028 22.1568H34.2086L30.5107 15.7001H23.9911V9.7241H47.0202ZM46.1783 49.9302L50.5019 46.6102C51.1277 46.1294 52.0152 46.2438 52.493 46.8735C52.9709 47.5031 52.8571 48.3961 52.2314 48.8769L47.9077 52.2084C47.646 52.403 47.3502 52.4946 47.043 52.4946C46.6106 52.4946 46.1896 52.2999 45.9166 51.9336C45.4387 51.3039 45.5525 50.411 46.1783 49.9302ZM43.6182 48.0069C43.3565 48.4305 42.89 48.6709 42.4235 48.6709C42.1618 48.6709 41.9001 48.5907 41.6612 48.4419C41.0013 48.0183 40.7965 47.1368 41.2174 46.4728L44.1302 41.8477C44.5512 41.1723 45.4273 40.9777 46.0872 41.4013C46.7585 41.8248 46.952 42.7064 46.531 43.3703L43.6182 48.0069ZM36.9279 55.4825L35.5057 57.7607L34.0834 55.4825V25.763C34.0834 24.9616 34.7206 24.332 35.5057 24.332C36.2908 24.332 36.9279 24.9616 36.9279 25.763V55.4825ZM18.5183 46.8735C18.9962 46.2438 19.8837 46.1294 20.5095 46.6102L24.8331 49.9302C25.4589 50.411 25.5727 51.3039 25.0948 51.9336C24.8217 52.2999 24.4008 52.4946 23.9684 52.4946C23.6612 52.4946 23.3654 52.403 23.1037 52.2084L18.78 48.8769C18.1542 48.3961 18.0405 47.5031 18.5183 46.8735ZM24.4804 43.3703C24.0594 42.7064 24.2528 41.8248 24.9241 41.4013C25.5841 40.9777 26.4602 41.1723 26.8812 41.8477L29.7939 46.4728C30.2149 47.1368 30.0101 48.0183 29.3502 48.4419C29.1113 48.5907 28.8496 48.6709 28.5879 48.6709C28.1214 48.6709 27.6549 48.4305 27.3932 48.0069L24.4804 43.3703ZM9.689 58.2759V56.6503H32.9001L33.9241 58.2759H9.689ZM61.311 58.2759H37.0872L38.1113 56.6503H61.311V58.2759Z" fill="#00454E"/>
</g>
<path d="M4 4V0C1.79086 0 0 1.79086 0 4L4 4ZM67 4H71C71 1.79086 69.2091 0 67 0V4ZM67 64V72C69.2091 72 71 70.2091 71 68V64H67ZM4 64H0V68C0 70.2091 1.79086 72 4 72V64ZM4 8H67V0H4V8ZM63 4V64H71V4H63ZM67 56H4V72H67V56ZM8 64V4H0V64H8Z" fill="#080B0C" mask="url(#path-1-outside-1_192_653)"/>
<defs>
<clipPath id="clip0_192_653">
<path d="M4 4H67V64H4V4Z" fill="white"/>
</clipPath>
</defs>
</svg>
