<svg width="63" height="67" viewBox="0 0 63 67" fill="none" xmlns="http://www.w3.org/2000/svg">
<path d="M61.25 3.52631H1.75C0.78225 3.52631 0 4.31621 0 5.28947V61.7105C0 64.6268 2.3555 67 5.25 67H57.75C60.6445 67 63 64.6268 63 61.7105V5.28947C63 4.31621 62.2177 3.52631 61.25 3.52631Z" fill="#080B0C"/>
<path d="M57.75 61.7105H5.25C3.31625 61.7105 1.75 60.1325 1.75 58.1842V1.76316H61.25V58.1842C61.25 60.1325 59.6838 61.7105 57.75 61.7105Z" fill="#080B0C"/>
<path d="M57.75 63.4737H5.25C2.3555 63.4737 0 61.1005 0 58.1842V1.76316C0 0.788132 0.78225 0 1.75 0H61.25C62.2177 0 63 0.788132 63 1.76316V58.1842C63 61.1005 60.6445 63.4737 57.75 63.4737ZM3.5 3.52632V58.1842C3.5 59.1575 4.284 59.9474 5.25 59.9474H57.75C58.716 59.9474 59.5 59.1575 59.5 58.1842V3.52632H3.5Z" fill="#080B0C"/>
<path d="M19.25 22.9211H10.5V52.8947H19.25V22.9211Z" fill="#F2F7F8"/>
<path d="M14.8487 19.3947H14.7997C12.1887 19.3947 10.5 17.4341 10.5 14.9851C10.5 12.4832 12.2412 10.5789 14.8995 10.5789C17.5612 10.5789 19.201 12.4832 19.25 14.9851C19.25 17.4323 17.5612 19.3947 14.8487 19.3947Z" fill="#F2F7F8"/>
<path d="M52.5 52.8947H43.75V36.8518C43.75 32.9763 41.6063 30.3316 38.164 30.3316C35.5373 30.3316 34.1162 32.1159 33.4267 33.8403C33.1747 34.4574 33.25 36.1641 33.25 37.0263V52.8947H24.5V22.9211H33.25V27.5335C34.5118 25.5658 36.4875 22.9211 41.5415 22.9211C47.803 22.9211 52.4983 26.8882 52.4983 35.7463L52.5 52.8947Z" fill="#F2F7F8"/>
</svg>
