<svg width="71" height="72" viewBox="0 0 71 72" fill="none" xmlns="http://www.w3.org/2000/svg">
<g clip-path="url(#clip0_363_532)">
<mask id="path-1-outside-1_363_532" maskUnits="userSpaceOnUse" x="0" y="0" width="71" height="72" fill="black">
<rect fill="white" width="71" height="72"/>
<path d="M4 4H67V64H4V4Z"/>
</mask>
<path d="M67 4H4V64H67V4Z" fill="#00454E"/>
<path d="M49 15.1504H22V53.3805H49V15.1504Z" fill="#F2F7F8"/>
<path d="M46.3205 33.2035H25.2089C24.8983 33.2035 24.6471 32.9596 24.6471 32.6581V18.3508C24.6471 18.0492 24.8983 17.8053 25.2089 17.8053H46.3205C46.6311 17.8053 46.8824 18.0492 46.8824 18.3508V32.6581C46.8824 32.9596 46.6311 33.2035 46.3205 33.2035ZM25.7708 32.1115H45.7586V18.8962H25.7708V32.1115Z" fill="#00454E"/>
<path d="M37.8824 22.8496C37.8824 23.29 37.523 23.646 37.0911 23.646C36.6535 23.646 36.2941 23.29 36.2941 22.8496C36.2941 22.4091 36.6535 22.0531 37.0911 22.0531C37.523 22.0531 37.8824 22.4091 37.8824 22.8496Z" fill="#00454E"/>
<path d="M39.1194 28.9546H31.8783C31.1928 28.9546 30.769 28.1996 31.1342 27.6262L33.3975 24.0546C33.7408 23.5098 34.5366 23.5098 34.8719 24.0546L36.3027 26.3127L36.9308 25.311C37.2741 24.7742 38.0618 24.7742 38.4052 25.311L39.8646 27.6274C40.2298 28.2008 39.8141 28.9558 39.1206 28.9558L39.1194 28.9546Z" fill="#00454E"/>
<path d="M46.3205 36.9204H25.2089C24.8983 36.9204 24.6471 36.6829 24.6471 36.3894C24.6471 36.0958 24.8983 35.8584 25.2089 35.8584H46.3205C46.6311 35.8584 46.8824 36.0958 46.8824 36.3894C46.8824 36.6829 46.6311 36.9204 46.3205 36.9204Z" fill="#00454E"/>
<path d="M46.3205 40.1062H25.2089C24.8983 40.1062 24.6471 39.8688 24.6471 39.5752C24.6471 39.2817 24.8983 39.0442 25.2089 39.0442H46.3205C46.6311 39.0442 46.8824 39.2817 46.8824 39.5752C46.8824 39.8688 46.6311 40.1062 46.3205 40.1062Z" fill="#00454E"/>
<path d="M46.3205 43.292H25.2089C24.8983 43.292 24.6471 43.0546 24.6471 42.7611C24.6471 42.4675 24.8983 42.2301 25.2089 42.2301H46.3205C46.6311 42.2301 46.8824 42.4675 46.8824 42.7611C46.8824 43.0546 46.6311 43.292 46.3205 43.292Z" fill="#00454E"/>
<path d="M46.3205 46.4779H25.2089C24.8983 46.4779 24.6471 46.2404 24.6471 45.9469C24.6471 45.6534 24.8983 45.4159 25.2089 45.4159H46.3205C46.6311 45.4159 46.8824 45.6534 46.8824 45.9469C46.8824 46.2404 46.6311 46.4779 46.3205 46.4779Z" fill="#00454E"/>
<path d="M39.977 49.1327H25.1995C24.8941 49.1327 24.6471 48.8953 24.6471 48.6018C24.6471 48.3082 24.8941 48.0708 25.1995 48.0708H39.977C40.2824 48.0708 40.5294 48.3082 40.5294 48.6018C40.5294 48.8953 40.2824 49.1327 39.977 49.1327Z" fill="#00454E"/>
</g>
<path d="M4 4V0C1.79086 0 0 1.79086 0 4L4 4ZM67 4H71C71 1.79086 69.2091 0 67 0V4ZM67 64V72C69.2091 72 71 70.2091 71 68V64H67ZM4 64H0V68C0 70.2091 1.79086 72 4 72V64ZM4 8H67V0H4V8ZM63 4V64H71V4H63ZM67 56H4V72H67V56ZM8 64V4H0V64H8Z" fill="#080B0C" mask="url(#path-1-outside-1_363_532)"/>
<defs>
<clipPath id="clip0_363_532">
<path d="M4 4H67V64H4V4Z" fill="white"/>
</clipPath>
</defs>
</svg>
