<svg width="71" height="72" viewBox="0 0 71 72" fill="none" xmlns="http://www.w3.org/2000/svg">
<g clip-path="url(#clip0_192_658)">
<mask id="path-1-outside-1_192_658" maskUnits="userSpaceOnUse" x="0" y="0" width="71" height="72" fill="black">
<rect fill="white" width="71" height="72"/>
<path d="M4 4H67V64H4V4Z"/>
</mask>
<path d="M56.4412 25.099C56.464 25.4081 56.3729 25.7058 56.1909 25.9462L50.4336 33.0097C50.2402 33.2387 49.9671 33.3875 49.6599 33.4219C49.3527 33.4448 49.0569 33.3532 48.8293 33.17L47.737 32.2656V49.9989C47.737 50.6399 47.2364 51.1437 46.5992 51.1437H24.3894C23.7636 51.1437 23.2516 50.6399 23.2516 49.9989V32.2885L22.1934 33.17C21.9545 33.3532 21.6587 33.4448 21.3515 33.4219C21.0556 33.3875 20.7826 33.2387 20.5891 33.0097L14.8319 25.9462C14.4336 25.4539 14.5019 24.7327 14.9798 24.332L23.6612 17.1654C23.866 16.9937 24.1846 16.8563 24.4349 16.8563H29.9874C30.4083 16.8563 30.7952 17.0853 30.9772 17.4402C31.9102 19.0773 33.6397 20.0962 35.4943 20.0962C37.3603 20.0962 39.0898 19.0773 40 17.4402C40.2048 17.0853 40.5803 16.8563 40.9899 16.8563H46.5537C46.8723 16.8563 47.1568 16.9823 47.3729 17.1883L56.0316 24.332C56.2592 24.5266 56.4071 24.8014 56.4412 25.099Z" fill="#F2F7F8"/>
<path d="M39.2604 26.5072C39.2604 27.3429 38.5778 28.0183 37.7585 28.0183C36.9279 28.0183 36.2453 27.3429 36.2453 26.5072C36.2453 25.6714 36.9279 24.996 37.7585 24.996C38.5778 24.996 39.2604 25.6714 39.2604 26.5072Z" fill="#00454E"/>
<path d="M41.1492 36.3183H29.8622C28.7927 36.3183 28.1327 35.1276 28.7016 34.2232L32.2288 28.5907C32.7636 27.7321 34.0038 27.7321 34.5272 28.5907L36.7573 32.1511L37.7358 30.5713C38.2705 29.7241 39.4994 29.7241 40.0341 30.5713L42.3097 34.2232C42.8786 35.1276 42.2301 36.3183 41.1492 36.3183Z" fill="#00454E"/>
<path d="M4 4V64H67V4H4ZM56.1909 25.9462L50.4336 33.0097C50.2402 33.2387 49.9671 33.3875 49.6599 33.4219C49.3527 33.4448 49.0569 33.3532 48.8293 33.17L47.737 32.2656V49.9989C47.737 50.6399 47.2364 51.1437 46.5992 51.1437H24.3894C23.7636 51.1437 23.2516 50.6399 23.2516 49.9989V32.2885L22.1934 33.17C21.9545 33.3532 21.6587 33.4448 21.3515 33.4219C21.0556 33.3875 20.7826 33.2387 20.5891 33.0097L14.8319 25.9462C14.4336 25.4539 14.5019 24.7327 14.9798 24.332L23.6612 17.1654C23.866 16.9937 24.1846 16.8563 24.4349 16.8563H29.9874C30.4083 16.8563 30.7952 17.0853 30.9772 17.4402C31.9102 19.0773 33.6397 20.0962 35.4943 20.0962C37.3603 20.0962 39.0898 19.0773 40 17.4402C40.2048 17.0853 40.5803 16.8563 40.9899 16.8563H46.5537C46.8723 16.8563 47.1568 16.9823 47.3729 17.1883L56.0316 24.332C56.2592 24.5266 56.4071 24.8014 56.4412 25.099C56.464 25.4081 56.3729 25.7058 56.1909 25.9462Z" fill="#00454E"/>
</g>
<path d="M4 4V0C1.79086 0 0 1.79086 0 4L4 4ZM67 4H71C71 1.79086 69.2091 0 67 0V4ZM67 64V72C69.2091 72 71 70.2091 71 68V64H67ZM4 64H0V68C0 70.2091 1.79086 72 4 72V64ZM4 8H67V0H4V8ZM63 4V64H71V4H63ZM67 56H4V72H67V56ZM8 64V4H0V64H8Z" fill="#080B0C" mask="url(#path-1-outside-1_192_658)"/>
<defs>
<clipPath id="clip0_192_658">
<path d="M4 4H67V64H4V4Z" fill="white"/>
</clipPath>
</defs>
</svg>
