<svg width="13" height="20" viewBox="0 0 13 20" fill="none" xmlns="http://www.w3.org/2000/svg">
<path d="M0 2.9104C0 2.28051 0.273928 1.67642 0.761522 1.23102C1.24912 0.785623 1.91044 0.5354 2.6 0.5354L10.4 0.5354C11.0896 0.5354 11.7509 0.785623 12.2385 1.23102C12.7261 1.67642 13 2.28051 13 2.9104V17.1604C13 17.7903 12.7261 18.3944 12.2385 18.8398C11.7509 19.2852 11.0896 19.5354 10.4 19.5354H2.6C1.91044 19.5354 1.24912 19.2852 0.761522 18.8398C0.273928 18.3944 0 17.7903 0 17.1604V2.9104ZM7.8 15.9729C7.8 15.658 7.66304 15.3559 7.41924 15.1332C7.17544 14.9105 6.84478 14.7854 6.5 14.7854C6.15522 14.7854 5.82456 14.9105 5.58076 15.1332C5.33696 15.3559 5.2 15.658 5.2 15.9729C5.2 16.2878 5.33696 16.5899 5.58076 16.8126C5.82456 17.0353 6.15522 17.1604 6.5 17.1604C6.84478 17.1604 7.17544 17.0353 7.41924 16.8126C7.66304 16.5899 7.8 16.2878 7.8 15.9729Z" fill="#F2F7F8"/>
</svg>
