<svg width="301" height="61" viewBox="0 0 301 61" fill="none" xmlns="http://www.w3.org/2000/svg">
<path d="M106.531 0.952332V57.0543C106.531 58.6902 107.866 60.022 109.504 60.022H297.459C299.109 60.022 300.443 58.6902 300.443 57.0543V0.952332H106.531ZM295.19 50.5843H111.784V6.19551H295.19V50.5843Z" fill="#0B0D0E"/>
<path d="M129.296 23.11V26.8851H141.45V31.4152H129.296V38.5564H123.928V18.3177H145.631V23.11H129.296Z" fill="white"/>
<path d="M169.32 18.3177H151.44L148.163 38.5564H153.499L154.361 33.135H166.399L167.261 38.5564H172.629L169.32 18.3177ZM155.128 28.3532L155.958 23.11H164.803L165.633 28.3532H155.128Z" fill="white"/>
<path d="M226.667 33.6697V38.462H204.974V18.2338H210.342V33.6697H226.667Z" fill="white"/>
<path d="M251.983 18.2338H234.104L230.826 38.462H236.152L237.024 33.051H249.063L249.924 38.462H255.293L251.983 18.2338ZM237.791 28.2587L238.621 23.026H247.466L248.296 28.2587H237.791Z" fill="white"/>
<path d="M199.763 29.4962C199.417 29.0243 198.954 28.6573 198.355 28.3847C198.881 28.0806 199.28 27.7135 199.564 27.2521C199.952 26.6125 200.152 25.784 200.152 24.7774V23.2254C200.152 22.1033 199.952 21.17 199.564 20.4465C199.175 19.7229 198.597 19.1881 197.82 18.8421C197.053 18.496 196.086 18.3177 194.931 18.3177H176.841V38.5564H195.204C196.37 38.5564 197.347 38.3677 198.124 38.0007C198.891 37.6336 199.48 37.0883 199.868 36.3543C200.246 35.6202 200.446 34.687 200.446 33.5544V32.0025C200.446 30.9538 200.215 30.1149 199.763 29.4962ZM182.209 23.0261H193.765C194.027 23.0261 194.238 23.0471 194.406 23.11C194.574 23.1729 194.7 23.2778 194.784 23.4246C194.857 23.5714 194.899 23.7602 194.899 23.9699V25.1653C194.899 25.5009 194.815 25.7421 194.637 25.8889C194.458 26.0462 194.164 26.1196 193.765 26.1196H182.209V23.0261ZM195.172 32.9043C195.172 33.114 195.13 33.3027 195.046 33.4496C194.973 33.5964 194.847 33.7012 194.679 33.7642C194.511 33.8271 194.29 33.848 194.006 33.848H182.209V30.7021H194.006C194.406 30.7021 194.7 30.7755 194.889 30.9224C195.078 31.0692 195.172 31.3104 195.172 31.6459V32.9043Z" fill="white"/>
<path d="M282.364 29.4017C282.017 28.9299 281.555 28.5628 280.967 28.2902C281.481 27.9966 281.891 27.6191 282.175 27.1576C282.553 26.518 282.752 25.7001 282.752 24.6934V23.1414C282.752 22.0089 282.553 21.0861 282.175 20.3625C281.786 19.6389 281.198 19.1041 280.431 18.7581C279.653 18.4015 278.687 18.2338 277.531 18.2338H259.442V38.462H277.805C278.971 38.462 279.948 38.2837 280.725 37.9167C281.502 37.5496 282.08 36.9939 282.469 36.2598C282.857 35.5258 283.047 34.5925 283.047 33.4704V31.9185C283.047 30.8698 282.815 30.0309 282.364 29.4017ZM264.81 22.9316H276.376C276.628 22.9316 276.849 22.9631 277.017 23.026C277.185 23.0785 277.311 23.1833 277.384 23.3301C277.468 23.4874 277.5 23.6657 277.5 23.8859V25.0709C277.5 25.4169 277.416 25.6581 277.237 25.8049C277.059 25.9517 276.765 26.0251 276.376 26.0251H264.81V22.9316ZM277.773 32.8098C277.773 33.03 277.731 33.2083 277.658 33.3656C277.573 33.5124 277.447 33.6173 277.279 33.6697C277.111 33.7326 276.891 33.7641 276.607 33.7641H264.81V30.6077H276.607C277.006 30.6077 277.3 30.6811 277.489 30.8279C277.679 30.9852 277.773 31.2264 277.773 31.5619V32.8098Z" fill="white"/>
<path d="M111.784 6.19556V50.5843H295.191V6.19556H111.784ZM145.631 23.1101H129.296V26.8851H141.45V31.4153H129.296V38.5565H123.928V18.3178H145.631V23.1101ZM167.261 38.5565L166.4 33.135H154.361L153.499 38.5565H148.163L151.44 18.3178H169.32L172.629 38.5565H167.261ZM200.446 33.5545C200.446 34.687 200.247 35.6203 199.868 36.3543C199.48 37.0884 198.891 37.6337 198.125 38.0007C197.347 38.3677 196.37 38.5565 195.204 38.5565H176.842V18.3178H194.931C196.087 18.3178 197.053 18.4961 197.82 18.8421C198.597 19.1882 199.175 19.723 199.564 20.4465C199.952 21.1701 200.152 22.1034 200.152 23.2254V24.7774C200.152 25.7841 199.952 26.6125 199.564 27.2522C199.28 27.7136 198.881 28.0806 198.356 28.3847C198.954 28.6573 199.417 29.0244 199.763 29.4962C200.215 30.1149 200.446 30.9538 200.446 32.0025V33.5545ZM226.667 38.4621H204.974V18.2339H210.342V33.6698H226.667V38.4621ZM249.925 38.4621L249.063 33.0511H237.025L236.153 38.4621H230.827L234.104 18.2339H251.984L255.293 38.4621H249.925ZM283.047 33.4706C283.047 34.5926 282.858 35.5259 282.469 36.2599C282.08 36.994 281.503 37.5498 280.725 37.9168C279.948 38.2838 278.971 38.4621 277.805 38.4621H259.442V18.2339H277.532C278.687 18.2339 279.654 18.4017 280.431 18.7582C281.198 19.1043 281.786 19.6391 282.175 20.3626C282.553 21.0862 282.753 22.009 282.753 23.1415V24.6935C282.753 25.7002 282.553 26.5181 282.175 27.1578C281.891 27.6192 281.482 27.9967 280.967 28.2903C281.555 28.563 282.017 28.93 282.364 29.4019C282.816 30.0311 283.047 30.87 283.047 31.9186V33.4706Z" fill="#E35A25"/>
<path d="M165.632 28.3532H155.127L155.957 23.11H164.803L165.632 28.3532Z" fill="#E35A25"/>
<path d="M248.296 28.2587H237.791L238.621 23.0261H247.466L248.296 28.2587Z" fill="#E35A25"/>
<path d="M195.173 31.6458V32.9042C195.173 33.1139 195.131 33.3026 195.047 33.4494C194.973 33.5963 194.847 33.7011 194.679 33.764C194.511 33.827 194.29 33.8479 194.007 33.8479H182.209V30.702H194.007C194.406 30.702 194.7 30.7754 194.889 30.9222C195.078 31.0691 195.173 31.3102 195.173 31.6458Z" fill="#E35A25"/>
<path d="M194.9 23.9698V25.1653C194.9 25.5008 194.815 25.742 194.637 25.8888C194.458 26.0461 194.164 26.1195 193.765 26.1195H182.209V23.0261H193.765C194.028 23.0261 194.238 23.047 194.406 23.11C194.574 23.1729 194.7 23.2777 194.784 23.4245C194.857 23.5713 194.9 23.7601 194.9 23.9698Z" fill="#E35A25"/>
<path d="M277.5 23.8859V25.0709C277.5 25.4169 277.416 25.6581 277.237 25.8049C277.059 25.9517 276.765 26.0251 276.376 26.0251H264.81V22.9316H276.376C276.628 22.9316 276.849 22.9631 277.017 23.026C277.185 23.0785 277.311 23.1833 277.385 23.3301C277.469 23.4874 277.5 23.6657 277.5 23.8859Z" fill="#E35A25"/>
<path d="M277.773 31.562V32.8099C277.773 33.0301 277.731 33.2083 277.658 33.3656C277.574 33.5125 277.448 33.6173 277.279 33.6697C277.111 33.7327 276.891 33.7641 276.607 33.7641H264.81V30.6077H276.607C277.006 30.6077 277.3 30.6811 277.49 30.8279C277.679 30.9852 277.773 31.2264 277.773 31.562Z" fill="#E35A25"/>
<path d="M9.22936 22.0456C9.46047 21.364 10.1958 20.9761 10.8891 21.2068L15.6689 22.7587C16.3622 22.9789 16.7299 23.7235 16.5093 24.4051C16.3307 24.9609 15.816 25.3174 15.2592 25.3174C15.1227 25.3174 14.9861 25.2964 14.86 25.2545L10.0803 23.7025C9.38694 23.4718 9.00876 22.7377 9.22936 22.0456Z" fill="white"/>
<path d="M16.5511 32.4166C16.7717 33.1087 16.3936 33.8428 15.7107 34.063L10.931 35.615C10.7944 35.6569 10.6578 35.6779 10.5213 35.6779C9.96452 35.6779 9.44977 35.3319 9.27118 34.7761C9.05058 34.084 9.42876 33.3499 10.1116 33.1192L14.8914 31.5777C15.5847 31.347 16.32 31.7245 16.5511 32.4166Z" fill="white"/>
<path d="M16.4042 12.5135C15.984 11.9263 16.11 11.1084 16.6983 10.6784C17.2866 10.2485 18.106 10.3848 18.5262 10.972L21.4886 15.0303C21.9088 15.6175 21.7827 16.4354 21.1944 16.8549C20.9633 17.0331 20.6902 17.1066 20.4276 17.1066C20.0179 17.1066 19.6187 16.9178 19.3561 16.5718L16.4042 12.5135Z" fill="white"/>
<path d="M28.5481 14.0865V9.07398C28.5481 8.35042 29.1364 7.76318 29.8612 7.76318C30.5861 7.76318 31.1743 8.35042 31.1743 9.07398V14.0865C31.1743 14.81 30.5861 15.3973 29.8612 15.3973C29.1364 15.3973 28.5481 14.81 28.5481 14.0865Z" fill="white"/>
<path d="M40.7549 28.0753C40.8809 30.8856 39.5678 33.0039 38.5173 34.7131C37.4878 36.37 36.9205 37.3767 37.0991 38.6141L37.1621 38.9916H38.0971V43.8782H37.4038C36.6789 43.8782 36.0906 44.4655 36.0906 45.189V45.4197C36.0906 46.4893 35.2187 47.3597 34.1472 47.3597H25.5752C24.5037 47.3597 23.6317 46.4893 23.6317 45.4197V45.189C23.6317 44.4655 23.0435 43.8782 22.3186 43.8782H21.6253V38.9916H22.5392L22.5917 38.6036C22.7808 37.3767 22.2241 36.4014 21.2261 34.7865C20.2912 33.2765 19.1251 31.4099 18.999 28.9666C18.6524 24.9608 20.2701 21.4689 23.4531 19.3821C26.9723 17.0646 31.8361 16.8758 35.5444 18.8892C38.8745 20.7138 40.7759 24.059 40.7549 28.0753Z" fill="white"/>
<path d="M38.5486 16.7919C37.9603 16.362 37.8342 15.544 38.2649 14.9568L41.2168 10.8986C41.637 10.3113 42.4669 10.1855 43.0447 10.605C43.633 11.0349 43.7695 11.8528 43.3388 12.4401L40.3869 16.4983C40.1243 16.8548 39.7251 17.0331 39.3259 17.0331C39.0528 17.0331 38.7797 16.9597 38.5486 16.7919Z" fill="white"/>
<path d="M43.2968 24.2896C43.0762 23.608 43.4544 22.8634 44.1372 22.6432L48.917 21.0912C49.6103 20.871 50.3562 21.2381 50.5768 21.9302C50.7974 22.6223 50.4192 23.3563 49.7364 23.587L44.9566 25.1285C44.82 25.1809 44.6835 25.2019 44.5469 25.2019C43.9902 25.2019 43.4754 24.8454 43.2968 24.2896Z" fill="white"/>
<path d="M50.6083 34.6607C50.4298 35.2165 49.915 35.5625 49.3688 35.5625C49.2322 35.5625 49.0956 35.5416 48.9591 35.4996L44.1793 33.9476C43.486 33.7274 43.1078 32.9829 43.3389 32.3013C43.5595 31.6092 44.2949 31.2317 44.9882 31.4624L49.7679 33.0039C50.4613 33.2346 50.8395 33.9686 50.6083 34.6607Z" fill="white"/>
<path d="M0.783203 1.03088V57.2168C0.783203 58.8527 2.11733 60.1844 3.75611 60.1844H55.9764C57.6151 60.1844 58.9493 58.8527 58.9493 57.2168V1.03088H0.783203ZM43.3389 12.44L40.387 16.4983C40.1243 16.8548 39.7252 17.0331 39.326 17.0331C39.0528 17.0331 38.7797 16.9597 38.5486 16.7919C37.9603 16.3619 37.8343 15.544 38.265 14.9568L41.2169 10.8986C41.6371 10.3113 42.467 10.1855 43.0447 10.6049C43.633 11.0349 43.7696 11.8528 43.3389 12.44ZM31.1741 9.07392V14.0864C31.1741 14.81 30.5858 15.3972 29.861 15.3972C29.1361 15.3972 28.5479 14.81 28.5479 14.0864V9.07392C28.5479 8.35036 29.1361 7.76312 29.861 7.76312C30.5858 7.76312 31.1741 8.35036 31.1741 9.07392ZM21.1944 16.8548C20.9633 17.0331 20.6901 17.1065 20.4275 17.1065C20.0178 17.1065 19.6186 16.9177 19.356 16.5717L16.4041 12.5134C15.9839 11.9262 16.11 11.1083 16.6982 10.6783C17.2865 10.2484 18.1059 10.3847 18.5261 10.9719L21.4885 15.0302C21.9087 15.6174 21.7827 16.4353 21.1944 16.8548ZM9.2292 22.0455C9.46031 21.3639 10.1957 20.9759 10.889 21.2066L15.6688 22.7586C16.3621 22.9788 16.7298 23.7234 16.5091 24.405C16.3306 24.9607 15.8158 25.3173 15.2591 25.3173C15.1225 25.3173 14.9859 25.2963 14.8599 25.2544L10.0801 23.7024C9.38678 23.4717 9.00859 22.7376 9.2292 22.0455ZM15.7108 34.0629L10.931 35.6149C10.7944 35.6568 10.6579 35.6778 10.5213 35.6778C9.96455 35.6778 9.4498 35.3318 9.27122 34.776C9.05062 34.0839 9.4288 33.3498 10.1116 33.1191L14.8914 31.5777C15.5847 31.347 16.3201 31.7245 16.5512 32.4166C16.7718 33.1087 16.3936 33.8427 15.7108 34.0629ZM38.5171 34.7131C37.4876 36.3699 36.9203 37.3766 37.0989 38.614L37.1619 38.9915H38.0969V43.8781H37.4036C36.6787 43.8781 36.0904 44.4654 36.0904 45.1889V45.4196C36.0904 46.4893 35.2185 47.3596 34.147 47.3596H25.575C24.5034 47.3596 23.6315 46.4893 23.6315 45.4196V45.1889C23.6315 44.4654 23.0433 43.8781 22.3184 43.8781H21.6251V38.9915H22.539L22.5915 38.6035C22.7806 37.3766 22.2239 36.4014 21.2259 34.7865C20.2909 33.2764 19.1249 31.4099 18.9988 28.9665C18.6522 24.9608 20.2699 21.4688 23.4529 19.382C26.9721 17.0645 31.8359 16.8758 35.5442 18.8892C38.8743 20.7138 40.7757 24.0589 40.7547 28.0752C40.8807 30.8855 39.5676 33.0038 38.5171 34.7131ZM44.1372 22.6433L48.917 21.0913C49.6103 20.8711 50.3562 21.2381 50.5768 21.9302C50.7974 22.6223 50.4192 23.3563 49.7364 23.587L44.9566 25.1285C44.8201 25.181 44.6835 25.2019 44.5469 25.2019C43.9902 25.2019 43.4754 24.8454 43.2969 24.2896C43.0762 23.608 43.4544 22.8635 44.1372 22.6433ZM50.6083 34.6606C50.4297 35.2164 49.915 35.5625 49.3687 35.5625C49.2322 35.5625 49.0956 35.5415 48.959 35.4995L44.1793 33.9476C43.4859 33.7273 43.1078 32.9828 43.3389 32.3012C43.5595 31.6091 44.2948 31.2316 44.9882 31.4623L49.7679 33.0038C50.4612 33.2345 50.8394 33.9685 50.6083 34.6606Z" fill="#0B0D0E"/>
<path d="M35.5127 28.2744C35.5757 29.4279 34.998 30.4242 34.0525 31.9552C33.2857 33.1925 32.3927 34.6292 32.0041 36.3699H27.697C27.3188 34.6501 26.4469 33.245 25.6906 32.0286C24.9447 30.8226 24.2934 29.774 24.2514 28.6834L24.2409 28.5576C24.0413 26.4184 24.7451 24.8035 26.3314 23.7653C28.2223 22.5279 31.0376 22.4126 33.023 23.4927C34.6933 24.405 35.5232 25.957 35.5022 28.1067V28.1905L35.5127 28.2744Z" fill="#0B0D0E"/>
<path d="M53.6968 1.03088V57.2168C53.6968 58.8527 55.0309 60.1844 56.6697 60.1844H108.89C110.529 60.1844 111.863 58.8527 111.863 57.2168V1.03088H53.6968ZM79.9172 49.5198L81.4194 50.7467H65.2523C66.0611 48.1671 64.6535 45.4301 62.0797 44.5598C61.0187 44.2032 59.9262 44.2242 58.9493 44.5493V29.9523C59.5375 29.8998 60.1258 29.8789 60.7246 29.8893L64.8531 24.8454L71.8179 27.1839L72.049 33.6959C72.8894 34.3146 73.6667 35.0067 74.3916 35.7407L80.8942 35.0906L84.1507 41.6445L79.7071 46.4263C79.8542 47.4435 79.9277 48.4712 79.9172 49.5198ZM106.61 32.6682H101.379L99.0678 26.5757C98.0803 26.2506 97.1244 25.8521 96.2104 25.3802L90.2541 28.0752L85.0646 22.8949L87.7539 16.9492C87.2812 16.0264 86.882 15.0721 86.5669 14.0864L80.453 11.7794V6.27406H100.412C100.181 6.84033 100.055 7.45902 100.055 8.11966C100.055 10.8776 102.293 13.1112 105.045 13.1112C105.591 13.1112 106.117 13.0273 106.61 12.8595V32.6682Z" fill="#0B0D0E"/>
<path d="M79.9174 49.5199L81.4196 50.7468H65.2524C66.0613 48.1671 64.6537 45.4302 62.0799 44.5598C61.0189 44.2033 59.9264 44.2242 58.9495 44.5493V29.9523C59.5377 29.8999 60.126 29.8789 60.7248 29.8894L64.8533 24.8455L71.8181 27.1839L72.0492 33.6959C72.8896 34.3146 73.6669 35.0067 74.3918 35.7408L80.8944 35.0906L84.1509 41.6446L79.7073 46.4264C79.8544 47.4435 79.9279 48.4712 79.9174 49.5199Z" fill="white"/>
<path d="M106.611 12.8595V32.6683H101.379L99.0679 26.5757C98.0805 26.2506 97.1245 25.8521 96.2106 25.3803L90.2543 28.0752L85.0648 22.895L87.7541 16.9492C87.2814 16.0264 86.8822 15.0722 86.567 14.0864L80.4531 11.7794V6.27411H100.413C100.181 6.84037 100.055 7.45906 100.055 8.1197C100.055 10.8776 102.293 13.1112 105.045 13.1112C105.592 13.1112 106.117 13.0273 106.611 12.8595Z" fill="white"/>
</svg>
