<svg width="352" height="108" viewBox="0 0 352 108" fill="none" xmlns="http://www.w3.org/2000/svg">
<g clip-path="url(#clip0_307_1449)">
<path d="M0 0V102.574C0 105.565 2.4218 108 5.39661 108H346.584C349.578 108 352 105.565 352 102.574V0H0ZM342.465 90.7445H9.53464V9.58637H342.465V90.7445Z" fill="#0B0D0E"/>
<path d="M41.323 40.512V47.4142H63.3862V55.6968H41.323V68.7534H31.5786V31.7501H70.9758V40.512H41.323Z" fill="#F2F7F8"/>
<path d="M113.977 31.7501H81.5214L75.5718 68.7534H85.259L86.8227 58.8411H108.676L110.24 68.7534H119.984L113.977 31.7501ZM88.2147 50.0984L89.7212 40.512H105.778L107.284 50.0984H88.2147Z" fill="#F2F7F8"/>
<path d="M218.076 59.8189V68.5809H178.698V31.5967H188.443V59.8189H218.076Z" fill="#F2F7F8"/>
<path d="M264.033 31.5967H231.578L225.628 68.5809H235.296L236.879 58.6877H258.732L260.296 68.5809H270.04L264.033 31.5967ZM238.271 49.9258L239.777 40.3586H255.834L257.34 49.9258H238.271Z" fill="#F2F7F8"/>
<path d="M169.24 52.1882C168.611 51.3254 167.772 50.6544 166.685 50.1559C167.638 49.5999 168.363 48.9288 168.878 48.0852C169.583 46.9157 169.946 45.401 169.946 43.5605V40.7229C169.946 38.6714 169.583 36.965 168.878 35.6421C168.172 34.3192 167.123 33.3414 165.712 32.7087C164.32 32.076 162.566 31.7501 160.468 31.7501H127.631V68.7534H160.964C163.081 68.7534 164.854 68.4083 166.265 67.7373C167.657 67.0662 168.725 66.0693 169.431 64.7272C170.117 63.3851 170.48 61.6787 170.48 59.608V56.7705C170.48 54.8532 170.06 53.3194 169.24 52.1882ZM137.375 40.3586H158.351C158.828 40.3586 159.21 40.397 159.515 40.512C159.82 40.627 160.049 40.8188 160.201 41.0872C160.335 41.3556 160.411 41.7007 160.411 42.0842V44.2699C160.411 44.8834 160.258 45.3244 159.934 45.5928C159.61 45.8804 159.076 46.0146 158.351 46.0146H137.375V40.3586ZM160.907 58.4193C160.907 58.8028 160.83 59.1479 160.678 59.4163C160.544 59.6847 160.316 59.8765 160.011 59.9915C159.705 60.1065 159.305 60.1449 158.79 60.1449H137.375V54.3931H158.79C159.515 54.3931 160.049 54.5273 160.392 54.7957C160.735 55.0641 160.907 55.5051 160.907 56.1186V58.4193Z" fill="#F2F7F8"/>
<path d="M319.182 52.0156C318.553 51.1529 317.714 50.4818 316.646 49.9833C317.58 49.4465 318.324 48.7563 318.839 47.9127C319.525 46.7431 319.888 45.2477 319.888 43.4071V40.5695C319.888 38.4989 319.525 36.8117 318.839 35.4887C318.133 34.1658 317.065 33.188 315.673 32.5553C314.262 31.9034 312.508 31.5967 310.41 31.5967H277.573V68.5809H310.906C313.023 68.5809 314.796 68.2549 316.207 67.5839C317.618 66.9128 318.667 65.8967 319.373 64.5546C320.078 63.2125 320.421 61.5061 320.421 59.4547V56.6171C320.421 54.6998 320.002 53.166 319.182 52.0156ZM287.317 40.1861H308.312C308.77 40.1861 309.171 40.2436 309.476 40.3586C309.781 40.4545 310.01 40.6462 310.143 40.9146C310.296 41.2022 310.353 41.5282 310.353 41.9308V44.0973C310.353 44.73 310.2 45.171 309.876 45.4394C309.552 45.7078 309.018 45.842 308.312 45.842H287.317V40.1861ZM310.849 58.2468C310.849 58.6494 310.772 58.9753 310.639 59.2629C310.486 59.5313 310.258 59.7231 309.952 59.8189C309.647 59.934 309.247 59.9915 308.732 59.9915H287.317V54.2205H308.732C309.457 54.2205 309.991 54.3547 310.334 54.6231C310.677 54.9107 310.849 55.3517 310.849 55.9652V58.2468Z" fill="#F2F7F8"/>
<path d="M9.53467 9.58636V90.7445H342.465V9.58636H9.53467ZM70.9759 40.512H41.3232V47.4142H63.3863V55.6968H41.3232V68.7534H31.5788V31.75H70.9759V40.512ZM110.24 68.7534L108.676 58.8411H86.8225L85.2588 68.7534H75.5716L81.5212 31.75H113.977L119.984 68.7534H110.24ZM170.479 59.608C170.479 61.6787 170.117 63.385 169.431 64.7271C168.725 66.0692 167.657 67.0662 166.265 67.7373C164.854 68.4083 163.081 68.7534 160.964 68.7534H127.631V31.75H160.468C162.566 31.75 164.32 32.076 165.712 32.7087C167.123 33.3414 168.172 34.3192 168.878 35.6421C169.583 36.965 169.946 38.6714 169.946 40.7229V43.5604C169.946 45.401 169.583 46.9157 168.878 48.0852C168.363 48.9288 167.638 49.5999 166.685 50.1559C167.772 50.6544 168.611 51.3254 169.24 52.1882C170.06 53.3194 170.479 54.8532 170.479 56.7705V59.608ZM218.076 68.5809H178.698V31.5967H188.443V59.8189H218.076V68.5809ZM260.296 68.5809L258.732 58.6877H236.879L235.296 68.5809H225.628L231.577 31.5967H264.033L270.04 68.5809H260.296ZM320.421 59.4546C320.421 61.5061 320.078 63.2125 319.372 64.5546C318.667 65.8967 317.618 66.9128 316.207 67.5839C314.796 68.2549 313.022 68.5809 310.906 68.5809H277.573V31.5967H310.41C312.508 31.5967 314.262 31.9034 315.673 32.5553C317.065 33.188 318.133 34.1658 318.839 35.4887C319.525 36.8116 319.887 38.4988 319.887 40.5695V43.4071C319.887 45.2476 319.525 46.7431 318.839 47.9127C318.324 48.7563 317.58 49.4465 316.646 49.9833C317.713 50.4818 318.552 51.1528 319.182 52.0156C320.002 53.166 320.421 54.6998 320.421 56.6171V59.4546Z" fill="#E35A25"/>
<path d="M107.284 50.0983H88.2144L89.7208 40.512H105.777L107.284 50.0983Z" fill="#E35A25"/>
<path d="M257.34 49.9258H238.271L239.777 40.3586H255.833L257.34 49.9258Z" fill="#E35A25"/>
<path d="M160.906 56.1186V58.4193C160.906 58.8028 160.83 59.1479 160.678 59.4163C160.544 59.6847 160.315 59.8765 160.01 59.9915C159.705 60.1065 159.305 60.1449 158.79 60.1449H137.375V54.3931H158.79C159.514 54.3931 160.048 54.5273 160.392 54.7957C160.735 55.0641 160.906 55.5051 160.906 56.1186Z" fill="#E35A25"/>
<path d="M160.411 42.0841V44.2698C160.411 44.8833 160.258 45.3243 159.934 45.5927C159.61 45.8803 159.076 46.0145 158.351 46.0145H137.375V40.3586H158.351C158.828 40.3586 159.209 40.3969 159.514 40.512C159.82 40.627 160.048 40.8187 160.201 41.0871C160.334 41.3556 160.411 41.7007 160.411 42.0841Z" fill="#E35A25"/>
<path d="M310.353 41.9308V44.0973C310.353 44.73 310.2 45.1709 309.876 45.4394C309.552 45.7078 309.018 45.842 308.312 45.842H287.317V40.186H308.312C308.77 40.186 309.17 40.2436 309.475 40.3586C309.781 40.4545 310.009 40.6462 310.143 40.9146C310.295 41.2022 310.353 41.5281 310.353 41.9308Z" fill="#E35A25"/>
<path d="M310.848 55.9652V58.2467C310.848 58.6494 310.772 58.9753 310.639 59.2629C310.486 59.5313 310.257 59.723 309.952 59.8189C309.647 59.9339 309.247 59.9915 308.732 59.9915H287.317V54.2205H308.732C309.456 54.2205 309.99 54.3547 310.334 54.6231C310.677 54.9107 310.848 55.3516 310.848 55.9652Z" fill="#E35A25"/>
</g>
<defs>
<clipPath id="clip0_307_1449">
<rect width="352" height="108" fill="white"/>
</clipPath>
</defs>
</svg>
