<svg width="272" height="109" viewBox="0 0 272 109" fill="none" xmlns="http://www.w3.org/2000/svg">
<path d="M167.418 21.1772C167.649 20.4956 168.384 20.1076 169.078 20.3383L173.857 21.8903C174.551 22.1105 174.918 22.855 174.698 23.5366C174.519 24.0924 174.004 24.4489 173.448 24.4489C173.311 24.4489 173.175 24.428 173.049 24.386L168.269 22.834C167.575 22.6033 167.197 21.8693 167.418 21.1772Z" fill="white"/>
<path d="M174.74 31.5483C174.96 32.2404 174.582 32.9744 173.899 33.1947L169.12 34.7466C168.983 34.7886 168.847 34.8096 168.71 34.8096C168.153 34.8096 167.638 34.4635 167.46 33.9077C167.239 33.2156 167.617 32.4816 168.3 32.2509L173.08 30.7094C173.773 30.4787 174.509 30.8562 174.74 31.5483Z" fill="white"/>
<path d="M174.593 11.6451C174.172 11.0578 174.299 10.2399 174.887 9.80995C175.475 9.38001 176.294 9.51633 176.715 10.1036L179.677 14.1618C180.097 14.749 179.971 15.567 179.383 15.9864C179.152 16.1647 178.879 16.2381 178.616 16.2381C178.206 16.2381 177.807 16.0493 177.545 15.7033L174.593 11.6451Z" fill="white"/>
<path d="M186.737 13.218V8.20551C186.737 7.48195 187.325 6.89471 188.05 6.89471C188.775 6.89471 189.363 7.48195 189.363 8.20551V13.218C189.363 13.9415 188.775 14.5288 188.05 14.5288C187.325 14.5288 186.737 13.9415 186.737 13.218Z" fill="white"/>
<path d="M198.943 27.2069C199.069 30.0172 197.756 32.1355 196.706 33.8447C195.676 35.5016 195.109 36.5083 195.288 37.7457L195.351 38.1232H196.286V43.0098H195.592C194.867 43.0098 194.279 43.597 194.279 44.3206V44.5513C194.279 45.6209 193.407 46.4913 192.336 46.4913H183.764C182.692 46.4913 181.82 45.6209 181.82 44.5513V44.3206C181.82 43.597 181.232 43.0098 180.507 43.0098H179.814V38.1232H180.728L180.78 37.7352C180.969 36.5083 180.413 35.533 179.415 33.9181C178.48 32.4081 177.314 30.5415 177.188 28.0982C176.841 24.0924 178.459 20.6005 181.642 18.5137C185.161 16.1962 190.025 16.0074 193.733 18.0208C197.063 19.8454 198.964 23.1906 198.943 27.2069Z" fill="white"/>
<path d="M196.737 15.9236C196.149 15.4937 196.023 14.6758 196.454 14.0885L199.406 10.0303C199.826 9.44306 200.656 9.31722 201.233 9.73668C201.822 10.1666 201.958 10.9846 201.528 11.5718L198.576 15.63C198.313 15.9865 197.914 16.1648 197.515 16.1648C197.242 16.1648 196.968 16.0914 196.737 15.9236Z" fill="white"/>
<path d="M201.486 23.4212C201.265 22.7396 201.643 21.9951 202.326 21.7749L207.106 20.2229C207.799 20.0027 208.545 20.3697 208.765 21.0618C208.986 21.7539 208.608 22.488 207.925 22.7187L203.145 24.2601C203.009 24.3126 202.872 24.3336 202.736 24.3336C202.179 24.3336 201.664 23.977 201.486 23.4212Z" fill="white"/>
<path d="M208.797 33.7923C208.618 34.3481 208.103 34.6941 207.557 34.6941C207.421 34.6941 207.284 34.6732 207.148 34.6312L202.368 33.0792C201.674 32.859 201.296 32.1145 201.527 31.4329C201.748 30.7408 202.483 30.3633 203.177 30.594L207.956 32.1355C208.65 32.3662 209.028 33.1002 208.797 33.7923Z" fill="white"/>
<path d="M158.972 0.162537V56.3484C158.972 57.9843 160.306 59.3161 161.945 59.3161H214.165C215.804 59.3161 217.138 57.9843 217.138 56.3484V0.162537H158.972ZM201.528 11.5717L198.576 15.6299C198.313 15.9865 197.914 16.1647 197.515 16.1647C197.242 16.1647 196.968 16.0913 196.737 15.9235C196.149 15.4936 196.023 14.6757 196.454 14.0884L199.406 10.0302C199.826 9.44296 200.656 9.31713 201.233 9.73658C201.822 10.1665 201.958 10.9845 201.528 11.5717ZM189.363 8.20557V13.2181C189.363 13.9416 188.775 14.5288 188.05 14.5288C187.325 14.5288 186.737 13.9416 186.737 13.2181V8.20557C186.737 7.48201 187.325 6.89478 188.05 6.89478C188.775 6.89478 189.363 7.48201 189.363 8.20557ZM179.383 15.9865C179.152 16.1647 178.879 16.2381 178.616 16.2381C178.207 16.2381 177.807 16.0494 177.545 15.7033L174.593 11.6451C174.173 11.0579 174.299 10.2399 174.887 9.80999C175.475 9.38005 176.295 9.51637 176.715 10.1036L179.677 14.1618C180.097 14.7491 179.971 15.567 179.383 15.9865ZM167.418 21.1772C167.649 20.4956 168.384 20.1076 169.078 20.3383L173.857 21.8903C174.551 22.1105 174.918 22.855 174.698 23.5366C174.519 24.0924 174.005 24.4489 173.448 24.4489C173.311 24.4489 173.175 24.428 173.049 24.386L168.269 22.834C167.575 22.6033 167.197 21.8693 167.418 21.1772ZM173.899 33.1946L169.12 34.7465C168.983 34.7885 168.847 34.8095 168.71 34.8095C168.153 34.8095 167.639 34.4634 167.46 33.9076C167.239 33.2155 167.618 32.4815 168.3 32.2508L173.08 30.7093C173.773 30.4786 174.509 30.8561 174.74 31.5482C174.96 32.2403 174.582 32.9744 173.899 33.1946ZM196.706 33.8447C195.676 35.5016 195.109 36.5083 195.288 37.7456L195.351 38.1232H196.286V43.0098H195.592C194.867 43.0098 194.279 43.597 194.279 44.3206V44.5513C194.279 45.6209 193.407 46.4913 192.336 46.4913H183.764C182.692 46.4913 181.82 45.6209 181.82 44.5513V44.3206C181.82 43.597 181.232 43.0098 180.507 43.0098H179.814V38.1232H180.728L180.78 37.7352C180.969 36.5083 180.413 35.533 179.415 33.9181C178.48 32.4081 177.314 30.5415 177.188 28.0982C176.841 24.0924 178.459 20.6004 181.642 18.5137C185.161 16.1962 190.025 16.0074 193.733 18.0208C197.063 19.8454 198.964 23.1906 198.943 27.2069C199.069 30.0172 197.756 32.1354 196.706 33.8447ZM202.326 21.7749L207.106 20.2229C207.799 20.0027 208.545 20.3697 208.766 21.0618C208.986 21.7539 208.608 22.488 207.925 22.7187L203.145 24.2602C203.009 24.3126 202.872 24.3336 202.736 24.3336C202.179 24.3336 201.664 23.9771 201.486 23.4213C201.265 22.7397 201.643 21.9951 202.326 21.7749ZM208.797 33.7923C208.618 34.3481 208.104 34.6941 207.557 34.6941C207.421 34.6941 207.284 34.6731 207.148 34.6312L202.368 33.0792C201.675 32.859 201.296 32.1145 201.528 31.4329C201.748 30.7408 202.484 30.3632 203.177 30.5939L207.957 32.1354C208.65 32.3661 209.028 33.1002 208.797 33.7923Z" fill="#0B0D0E"/>
<path d="M193.701 27.4061C193.764 28.5596 193.186 29.5558 192.241 31.0868C191.474 32.3242 190.581 33.7608 190.193 35.5016H185.885C185.507 33.7818 184.635 32.3766 183.879 31.1602C183.133 29.9543 182.482 28.9056 182.44 27.8151L182.429 27.6892C182.23 25.55 182.934 23.9351 184.52 22.897C186.411 21.6596 189.226 21.5442 191.212 22.6243C192.882 23.5366 193.712 25.0886 193.691 27.2383V27.3222L193.701 27.4061Z" fill="#0B0D0E"/>
<path d="M213.44 0.162537V56.3484C213.44 57.9843 214.774 59.3161 216.413 59.3161H268.633C270.272 59.3161 271.606 57.9843 271.606 56.3484V0.162537H213.44ZM239.66 48.6515L241.163 49.8784H224.995C225.804 47.2987 224.397 44.5618 221.823 43.6914C220.762 43.3349 219.669 43.3558 218.692 43.6809V29.0839C219.281 29.0315 219.869 29.0105 220.468 29.021L224.596 23.9771L231.561 26.3155L231.792 32.8275C232.633 33.4462 233.41 34.1383 234.135 34.8724L240.637 34.2222L243.894 40.7762L239.45 45.558C239.597 46.5752 239.671 47.6028 239.66 48.6515ZM266.354 31.7999H261.122L258.811 25.7073C257.823 25.3822 256.868 24.9837 255.954 24.5119L249.997 27.2069L244.808 22.0266L247.497 16.0808C247.024 15.158 246.625 14.2038 246.31 13.2181L240.196 10.9111V5.40572H260.156C259.924 5.97198 259.798 6.59067 259.798 7.25131C259.798 10.0092 262.036 12.2428 264.788 12.2428C265.335 12.2428 265.86 12.1589 266.354 11.9911V31.7999Z" fill="#0B0D0E"/>
<path d="M239.661 48.6514L241.163 49.8784H224.996C225.804 47.2987 224.397 44.5618 221.823 43.6914C220.762 43.3349 219.67 43.3558 218.693 43.6809V29.0839C219.281 29.0315 219.869 29.0105 220.468 29.021L224.596 23.9771L231.561 26.3155L231.792 32.8275C232.633 33.4462 233.41 34.1383 234.135 34.8724L240.638 34.2222L243.894 40.7762L239.45 45.558C239.598 46.5752 239.671 47.6028 239.661 48.6514Z" fill="white"/>
<path d="M266.354 11.9911V31.7999H261.122L258.811 25.7073C257.824 25.3822 256.868 24.9837 255.954 24.5118L249.997 27.2068L244.808 22.0266L247.497 16.0808C247.025 15.158 246.625 14.2038 246.31 13.218L240.196 10.911V5.4057H260.156C259.925 5.97196 259.799 6.59066 259.799 7.2513C259.799 10.0092 262.036 12.2428 264.788 12.2428C265.335 12.2428 265.86 12.1589 266.354 11.9911Z" fill="white"/>
<path d="M75.6776 22.1577V25.9328H87.8319V30.4524H75.6776V37.5936H70.3096V17.3654H92.0128V22.1577H75.6776Z" fill="white"/>
<path d="M115.702 17.3654H97.8225L94.5449 37.5936H99.8815L100.743 32.1826H112.782L113.643 37.5936H119.011L115.702 17.3654ZM101.51 27.3904L102.34 22.1577H111.185L112.015 27.3904H101.51Z" fill="white"/>
<path d="M146.145 28.5334C145.799 28.072 145.336 27.6945 144.738 27.4218C145.263 27.1282 145.662 26.7507 145.946 26.2893C146.334 25.6601 146.534 24.8317 146.534 23.825V22.273C146.534 21.1405 146.334 20.2177 145.946 19.4941C145.557 18.7706 144.979 18.2358 144.202 17.8897C143.435 17.5437 142.469 17.3654 141.313 17.3654H123.223V37.5936H141.586C142.752 37.5936 143.729 37.4153 144.506 37.0483C145.273 36.6813 145.862 36.1255 146.25 35.3915C146.639 34.6574 146.828 33.7346 146.828 32.6021V31.0501C146.828 30.0015 146.597 29.1626 146.145 28.5334ZM128.591 22.0633H140.147C140.41 22.0633 140.62 22.0948 140.788 22.1577C140.956 22.2206 141.082 22.315 141.166 22.4723C141.239 22.6191 141.281 22.7974 141.281 23.0176V24.213C141.281 24.5486 141.197 24.7898 141.019 24.9366C140.84 25.0834 140.546 25.1568 140.147 25.1568H128.591V22.0633ZM141.555 31.9415C141.555 32.1617 141.513 32.3504 141.429 32.4972C141.355 32.644 141.229 32.7489 141.061 32.8118C140.893 32.8643 140.672 32.8957 140.389 32.8957H128.591V29.7393H140.389C140.788 29.7393 141.082 29.8127 141.271 29.97C141.46 30.1168 141.555 30.358 141.555 30.6936V31.9415Z" fill="white"/>
<path d="M144.916 82.6324V87.4247H123.223V67.186H128.591V82.6324H144.916Z" fill="white"/>
<path d="M170.233 67.186H152.354L149.076 87.4247H154.402L155.274 82.0033H167.313L168.174 87.4247H173.542L170.233 67.186ZM156.03 77.2215L156.871 71.9783H165.716L166.546 77.2215H156.03Z" fill="white"/>
<path d="M200.614 78.3646C200.267 77.8927 199.805 77.5257 199.216 77.253C199.731 76.9594 200.141 76.5819 200.424 76.1205C200.803 75.4808 201.002 74.6629 201.002 73.6457V72.1042C201.002 70.9717 200.803 70.0384 200.424 69.3148C200.036 68.5913 199.447 68.0565 198.67 67.7104C197.903 67.3644 196.937 67.1966 195.781 67.1966H177.692V87.4248H196.054C197.22 87.4248 198.197 87.236 198.975 86.869C199.752 86.502 200.33 85.9567 200.719 85.2226C201.107 84.4886 201.296 83.5553 201.296 82.4228V80.8813C201.296 79.8222 201.065 78.9833 200.614 78.3646ZM183.06 71.8945H194.626C194.878 71.8945 195.098 71.9259 195.266 71.9784C195.435 72.0413 195.561 72.1462 195.634 72.293C195.718 72.4398 195.75 72.6285 195.75 72.8487V74.0337C195.75 74.3693 195.666 74.6105 195.487 74.7677C195.309 74.9146 195.014 74.988 194.626 74.988H183.06V71.8945ZM196.023 81.7726C196.023 81.9928 195.981 82.1711 195.907 82.3179C195.823 82.4647 195.697 82.5696 195.529 82.6325C195.361 82.6954 195.14 82.7269 194.857 82.7269H183.06V79.5705H194.857C195.256 79.5705 195.55 79.6439 195.739 79.7907C195.928 79.9375 196.023 80.1787 196.023 80.5248V81.7726Z" fill="white"/>
<path d="M164.224 49.8207V0H52.9136V56.1859C52.9136 57.8218 54.2477 59.1535 55.897 59.1535H105.827V106.007C105.827 107.653 107.161 108.985 108.8 108.985H215.72C217.359 108.985 218.693 107.653 218.693 106.007V49.8207H164.224ZM58.1661 49.7158V5.24318H158.972V49.7158H58.1661ZM213.44 99.547H111.08V55.0639H213.44V99.547Z" fill="#0B0D0E"/>
<path d="M111.08 55.0638V99.547H213.44V55.0638H111.08ZM144.916 87.4248H123.224V67.1861H128.592V82.6325H144.916V87.4248ZM168.174 87.4248L167.313 82.0033H155.274L154.402 87.4248H149.076L152.354 67.1861H170.233L173.542 87.4248H168.174ZM201.297 82.4228C201.297 83.5553 201.108 84.4886 200.719 85.2226C200.33 85.9567 199.752 86.5019 198.975 86.869C198.198 87.236 197.221 87.4248 196.055 87.4248H177.692V67.1966H195.781C196.937 67.1966 197.903 67.3643 198.67 67.7104C199.448 68.0564 200.036 68.5912 200.425 69.3148C200.803 70.0384 201.002 70.9717 201.002 72.1042V73.6457C201.002 74.6629 200.803 75.4808 200.425 76.1204C200.141 76.5818 199.731 76.9594 199.217 77.253C199.805 77.5256 200.267 77.8927 200.614 78.3645C201.065 78.9832 201.297 79.8221 201.297 80.8813V82.4228Z" fill="#E35A25"/>
<path d="M196.023 80.5248V81.7726C196.023 81.9929 195.981 82.1711 195.907 82.3179C195.823 82.4647 195.697 82.5696 195.529 82.6325C195.361 82.6954 195.141 82.7269 194.857 82.7269H183.06V79.5705H194.857C195.256 79.5705 195.55 79.6439 195.739 79.7907C195.928 79.9375 196.023 80.1787 196.023 80.5248Z" fill="#E35A25"/>
<path d="M195.75 72.8487V74.0337C195.75 74.3693 195.666 74.6104 195.487 74.7677C195.309 74.9145 195.014 74.988 194.626 74.988H183.06V71.8945H194.626C194.878 71.8945 195.099 71.9259 195.267 71.9784C195.435 72.0413 195.561 72.1461 195.634 72.293C195.718 72.4398 195.75 72.6285 195.75 72.8487Z" fill="#E35A25"/>
<path d="M166.546 77.2216H156.03L156.871 71.9784H165.716L166.546 77.2216Z" fill="#E35A25"/>
<path d="M58.1663 5.24316V49.7158H158.972V5.24316H58.1663ZM92.0133 22.1577H75.6781V25.9328H87.8323V30.4524H75.6781V37.5936H70.31V17.3654H92.0133V22.1577ZM113.643 37.5936L112.782 32.1826H100.743L99.8815 37.5936H94.545L97.8226 17.3654H115.702L119.011 37.5936H113.643ZM146.828 32.6021C146.828 33.7346 146.639 34.6574 146.251 35.3914C145.862 36.1255 145.274 36.6813 144.507 37.0483C143.729 37.4153 142.752 37.5936 141.586 37.5936H123.224V17.3654H141.313C142.469 17.3654 143.435 17.5437 144.202 17.8897C144.979 18.2358 145.557 18.7706 145.946 19.4941C146.335 20.2177 146.534 21.1405 146.534 22.273V23.825C146.534 24.8317 146.335 25.6601 145.946 26.2893C145.662 26.7507 145.263 27.1282 144.738 27.4218C145.337 27.6945 145.799 28.072 146.145 28.5334C146.597 29.1625 146.828 30.0015 146.828 31.0501V32.6021Z" fill="#E35A25"/>
<path d="M141.554 30.6936V31.9415C141.554 32.1617 141.512 32.3504 141.428 32.4972C141.355 32.644 141.229 32.7489 141.061 32.8118C140.893 32.8643 140.672 32.8957 140.388 32.8957H128.591V29.7393H140.388C140.788 29.7393 141.082 29.8127 141.271 29.97C141.46 30.1168 141.554 30.358 141.554 30.6936Z" fill="#E35A25"/>
<path d="M141.281 23.0176V24.2131C141.281 24.5486 141.197 24.7898 141.019 24.9366C140.84 25.0834 140.546 25.1568 140.147 25.1568H128.591V22.0634H140.147C140.409 22.0634 140.62 22.0948 140.788 22.1577C140.956 22.2206 141.082 22.315 141.166 22.4723C141.239 22.6191 141.281 22.7974 141.281 23.0176Z" fill="#E35A25"/>
<path d="M112.014 27.3904H101.51L102.339 22.1577H111.185L112.014 27.3904Z" fill="#E35A25"/>
<path d="M13.6463 90.9377C13.0685 90.4973 12.9634 89.6793 13.4046 89.1026C13.8459 88.5258 14.6652 88.421 15.243 88.8614L19.2349 91.9024C19.8127 92.3428 19.9177 93.1608 19.4765 93.7375C19.2244 94.0731 18.8357 94.2514 18.4365 94.2514C18.1529 94.2514 17.8798 94.1675 17.6382 93.9892L13.6463 90.9377Z" fill="white"/>
<path d="M21.1255 84.4991L23.8148 88.7356C24.2035 89.3438 24.0144 90.1512 23.4051 90.5392C23.1845 90.6756 22.9429 90.749 22.7013 90.749C22.2706 90.749 21.8399 90.5288 21.5983 90.1408L18.909 85.8938C18.5203 85.2856 18.6989 84.4781 19.3187 84.0901C19.928 83.7021 20.7368 83.8804 21.1255 84.4991Z" fill="white"/>
<path d="M26.6826 98.0579L27.628 99.547H5.25244V98.0579H26.6826Z" fill="white"/>
<path d="M30.4014 69.7658V96.9883L29.0883 99.0751L27.7751 96.9883V69.7658C27.7751 69.0317 28.3634 68.455 29.0883 68.455C29.8131 68.455 30.4014 69.0317 30.4014 69.7658Z" fill="white"/>
<path d="M39.2676 85.8938L36.5783 90.1408C36.3367 90.5288 35.906 90.749 35.4753 90.749C35.2337 90.749 34.992 90.6756 34.7714 90.5392C34.1621 90.1512 33.9731 89.3438 34.3617 88.7356L37.051 84.4991C37.4397 83.8804 38.2486 83.7021 38.8579 84.0901C39.4777 84.4781 39.6563 85.2856 39.2676 85.8938Z" fill="white"/>
<path d="M24.4764 60.5483H18.457V55.0744H39.7191V60.5483H33.6998L30.2856 66.4626H27.8905L24.4764 60.5483Z" fill="white"/>
<path d="M38.9422 91.9024L42.9341 88.8614C43.5118 88.421 44.3312 88.5258 44.7724 89.1026C45.2136 89.6793 45.1086 90.4973 44.5308 90.9377L40.5389 93.9892C40.2973 94.1675 40.0242 94.2514 39.7405 94.2514C39.3414 94.2514 38.9527 94.0731 38.7005 93.7375C38.2593 93.1608 38.3644 92.3428 38.9422 91.9024Z" fill="white"/>
<path d="M52.9134 98.0579V99.547H30.5483L31.4938 98.0579H52.9134Z" fill="white"/>
<path d="M0 49.8312V106.017C0 107.653 1.33413 108.985 2.97291 108.985H55.1932C56.8319 108.985 58.1661 107.653 58.1661 106.017V49.8312H0ZM18.909 85.8938C18.5203 85.2856 18.6989 84.4781 19.3187 84.0901C19.9279 83.7021 20.7368 83.8804 21.1255 84.4991L23.8148 88.7356C24.2035 89.3438 24.0144 90.1512 23.4051 90.5392C23.1845 90.6755 22.9429 90.7489 22.7013 90.7489C22.2706 90.7489 21.8398 90.5287 21.5982 90.1407L18.909 85.8938ZM19.4762 93.7376C19.2241 94.0731 18.8354 94.2514 18.4362 94.2514C18.1526 94.2514 17.8795 94.1675 17.6379 93.9892L13.646 90.9377C13.0682 90.4973 12.9631 89.6793 13.4044 89.1026C13.8456 88.5258 14.6649 88.421 15.2427 88.8614L19.2346 91.9024C19.8124 92.3429 19.9174 93.1608 19.4762 93.7376ZM18.4572 60.5482V55.0744H39.7193V60.5482H33.7L30.2859 66.4625H27.8907L24.4766 60.5482H18.4572ZM34.3618 88.7356L37.0511 84.4991C37.4397 83.8804 38.2486 83.7021 38.8579 84.0901C39.4777 84.4781 39.6563 85.2856 39.2676 85.8938L36.5783 90.1407C36.3367 90.5287 35.906 90.7489 35.4753 90.7489C35.2337 90.7489 34.9921 90.6755 34.7715 90.5392C34.1622 90.1512 33.9731 89.3438 34.3618 88.7356ZM38.942 91.9024L42.9338 88.8614C43.5116 88.421 44.331 88.5258 44.7722 89.1026C45.2134 89.6793 45.1084 90.4973 44.5306 90.9377L40.5387 93.9892C40.2971 94.1675 40.024 94.2514 39.7403 94.2514C39.3411 94.2514 38.9525 94.0731 38.7003 93.7376C38.2591 93.1608 38.3642 92.3429 38.942 91.9024ZM5.25249 99.547V98.0579H26.6826L27.6281 99.547H5.25249ZM30.4014 96.9883L29.0883 99.0751L27.7752 96.9883V69.7657C27.7752 69.0317 28.3634 68.4549 29.0883 68.4549C29.8131 68.4549 30.4014 69.0317 30.4014 69.7657V96.9883ZM52.9136 99.547H30.5485L31.4939 98.0579H52.9136V99.547Z" fill="#0B0D0E"/>
<path d="M77.3902 60.5483H71.3708V55.0744H92.6329V60.5483H86.6136L83.1994 66.4626H80.8043L77.3902 60.5483Z" fill="white"/>
<path d="M71.3709 92.0702V93.0979H93.9461C94.6709 93.0979 95.2592 93.6851 95.2592 94.4087V98.0579C95.2592 98.7815 94.6709 99.3687 93.9461 99.3687H70.0578C69.3329 99.3687 68.7446 98.7815 68.7446 98.0579C68.7446 97.3344 69.3329 96.7472 70.0578 96.7472H92.6329V95.7195H70.0578C69.3329 95.7195 68.7446 95.1323 68.7446 94.4087V90.7594C68.7446 90.0359 69.3329 89.4487 70.0578 89.4487H92.6329V88.4315H70.0578C69.3329 88.4315 68.7446 87.8442 68.7446 87.1207V83.4714C68.7446 82.7479 69.3329 82.1606 70.0578 82.1606H80.6783V69.7658C80.6783 69.0422 81.2666 68.455 81.9914 68.455C82.7268 68.455 83.3045 69.0422 83.3045 69.7658V83.4714C83.3045 84.195 82.7268 84.7822 81.9914 84.7822H71.3709V85.8099H93.9461C94.6709 85.8099 95.2592 86.3971 95.2592 87.1207V90.7594C95.2592 91.4935 94.6709 92.0702 93.9461 92.0702H71.3709Z" fill="white"/>
<path d="M52.9136 49.8312V106.017C52.9136 107.653 54.2477 108.985 55.8865 108.985H108.107C109.746 108.985 111.08 107.653 111.08 106.017V49.8312H52.9136ZM92.6329 55.0744V60.5482H86.6135L83.1994 66.4625H80.8043L77.3902 60.5482H71.3708V55.0744H92.6329ZM95.2591 90.7594C95.2591 91.4935 94.6709 92.0702 93.946 92.0702H71.3708V93.0979H93.946C94.6709 93.0979 95.2591 93.6851 95.2591 94.4087V98.0579C95.2591 98.7815 94.6709 99.3687 93.946 99.3687H70.0577C69.3329 99.3687 68.7446 98.7815 68.7446 98.0579C68.7446 97.3344 69.3329 96.7471 70.0577 96.7471H92.6329V95.7195H70.0577C69.3329 95.7195 68.7446 95.1322 68.7446 94.4087V90.7594C68.7446 90.0359 69.3329 89.4486 70.0577 89.4486H92.6329V88.4315H70.0577C69.3329 88.4315 68.7446 87.8442 68.7446 87.1207V83.4714C68.7446 82.7479 69.3329 82.1606 70.0577 82.1606H80.6782V69.7657C80.6782 69.0422 81.2665 68.4549 81.9914 68.4549C82.7267 68.4549 83.3045 69.0422 83.3045 69.7657V83.4714C83.3045 84.195 82.7267 84.7822 81.9914 84.7822H71.3708V85.8099H93.946C94.6709 85.8099 95.2591 86.3971 95.2591 87.1207V90.7594Z" fill="#0B0D0E"/>
</svg>
